<svg width="115" height="29" viewBox="0 0 115 29" fill="none" xmlns="http://www.w3.org/2000/svg">
<path d="M11.888 22H0.716V2.008H11.888V4.22H3.236V10.464H11.384V12.648H3.236V19.788H11.888V22ZM18.4026 22H15.9386V0.719999H18.4026V22ZM28.9533 6.712C30.2413 6.712 31.3427 6.992 32.2573 7.552C33.1907 8.112 33.9 8.90533 34.3853 9.932C34.8893 10.94 35.1413 12.1253 35.1413 13.488V14.972H24.8653C24.9027 16.6707 25.332 17.968 26.1533 18.864C26.9933 19.7413 28.16 20.18 29.6533 20.18C30.6053 20.18 31.4453 20.096 32.1733 19.928C32.92 19.7413 33.6853 19.48 34.4693 19.144V21.3C33.704 21.636 32.948 21.8787 32.2013 22.028C31.4547 22.196 30.568 22.28 29.5413 22.28C28.1227 22.28 26.8627 21.9907 25.7613 21.412C24.6787 20.8333 23.8293 19.9747 23.2133 18.836C22.616 17.6787 22.3173 16.2693 22.3173 14.608C22.3173 12.9653 22.588 11.556 23.1293 10.38C23.6893 9.204 24.464 8.29867 25.4533 7.664C26.4613 7.02933 27.628 6.712 28.9533 6.712ZM28.9253 8.728C27.7493 8.728 26.816 9.11067 26.1253 9.876C25.4533 10.6227 25.052 11.668 24.9213 13.012H32.5653C32.5653 12.1533 32.4347 11.4067 32.1733 10.772C31.912 10.1373 31.5107 9.64267 30.9693 9.288C30.4467 8.91467 29.7653 8.728 28.9253 8.728ZM44.282 6.712C45.2714 6.712 46.158 6.89867 46.942 7.272C47.7447 7.64533 48.426 8.21467 48.986 8.98H49.126L49.462 6.992H51.422V22.252C51.422 23.6707 51.1794 24.856 50.694 25.808C50.2087 26.7787 49.4714 27.5067 48.482 27.992C47.4927 28.4773 46.2327 28.72 44.702 28.72C43.6194 28.72 42.6207 28.636 41.706 28.468C40.81 28.3187 40.0074 28.0853 39.298 27.768V25.5C39.7834 25.7427 40.3154 25.948 40.894 26.116C41.4727 26.3027 42.098 26.4427 42.77 26.536C43.442 26.6293 44.1327 26.676 44.842 26.676C46.13 26.676 47.138 26.2933 47.866 25.528C48.6127 24.7813 48.986 23.7547 48.986 22.448V21.86C48.986 21.636 48.9954 21.3187 49.014 20.908C49.0327 20.4787 49.0514 20.18 49.07 20.012H48.958C48.4354 20.7773 47.782 21.3467 46.998 21.72C46.2327 22.0933 45.3367 22.28 44.31 22.28C42.3687 22.28 40.8474 21.5987 39.746 20.236C38.6634 18.8733 38.122 16.9693 38.122 14.524C38.122 12.9187 38.3647 11.5373 38.85 10.38C39.354 9.204 40.0634 8.29867 40.978 7.664C41.8927 7.02933 42.994 6.712 44.282 6.712ZM44.618 8.784C43.778 8.784 43.0594 9.008 42.462 9.456C41.8834 9.904 41.4354 10.5573 41.118 11.416C40.8194 12.2747 40.67 13.32 40.67 14.552C40.67 16.4 41.006 17.8187 41.678 18.808C42.3687 19.7787 43.3674 20.264 44.674 20.264C45.4394 20.264 46.0927 20.1707 46.634 19.984C47.1754 19.7787 47.6234 19.4707 47.978 19.06C48.3327 18.6307 48.594 18.0893 48.762 17.436C48.93 16.7827 49.014 16.008 49.014 15.112V14.524C49.014 13.1613 48.8554 12.06 48.538 11.22C48.2394 10.38 47.7634 9.764 47.11 9.372C46.4567 8.98 45.626 8.784 44.618 8.784ZM61.8726 6.74C63.7019 6.74 65.0553 7.14133 65.9326 7.944C66.8099 8.74667 67.2486 10.0253 67.2486 11.78V22H65.4566L64.9806 19.872H64.8686C64.4393 20.4133 63.9913 20.8707 63.5246 21.244C63.0766 21.5987 62.5539 21.86 61.9566 22.028C61.3779 22.196 60.6686 22.28 59.8286 22.28C58.9326 22.28 58.1206 22.1213 57.3926 21.804C56.6833 21.4867 56.1233 21.0013 55.7126 20.348C55.3019 19.676 55.0966 18.836 55.0966 17.828C55.0966 16.3347 55.6846 15.1867 56.8606 14.384C58.0366 13.5627 59.8473 13.1147 62.2926 13.04L64.8406 12.956V12.06C64.8406 10.8093 64.5699 9.94133 64.0286 9.456C63.4873 8.97067 62.7219 8.728 61.7326 8.728C60.9486 8.728 60.2019 8.84933 59.4926 9.092C58.7833 9.316 58.1206 9.57733 57.5046 9.876L56.7486 8.028C57.4019 7.67333 58.1766 7.37467 59.0726 7.132C59.9686 6.87067 60.9019 6.74 61.8726 6.74ZM62.6006 14.748C60.7339 14.8227 59.4366 15.1213 58.7086 15.644C57.9993 16.1667 57.6446 16.904 57.6446 17.856C57.6446 18.696 57.8966 19.312 58.4006 19.704C58.9233 20.096 59.5859 20.292 60.3886 20.292C61.6579 20.292 62.7126 19.9467 63.5526 19.256C64.3926 18.5467 64.8126 17.464 64.8126 16.008V14.664L62.6006 14.748ZM79.1079 6.712C80.8999 6.712 82.2532 7.15067 83.1679 8.028C84.0826 8.88667 84.5399 10.2867 84.5399 12.228V22H82.1039V12.396C82.1039 11.1827 81.8332 10.2773 81.2919 9.68C80.7506 9.08267 79.9012 8.784 78.7439 8.784C77.0826 8.784 75.9346 9.25067 75.2999 10.184C74.6652 11.1173 74.3479 12.4613 74.3479 14.216V22H71.8839V6.992H73.8719L74.2359 9.036H74.3759C74.7119 8.51333 75.1226 8.084 75.6079 7.748C76.1119 7.39333 76.6626 7.132 77.2599 6.964C77.8572 6.796 78.4732 6.712 79.1079 6.712ZM95.2125 22.28C93.8872 22.28 92.7018 22.0093 91.6565 21.468C90.6298 20.9267 89.8178 20.0867 89.2205 18.948C88.6418 17.8093 88.3525 16.3533 88.3525 14.58C88.3525 12.732 88.6605 11.2293 89.2765 10.072C89.8925 8.91467 90.7232 8.06533 91.7685 7.524C92.8325 6.98267 94.0365 6.712 95.3805 6.712C96.1458 6.712 96.8832 6.796 97.5925 6.964C98.3018 7.11333 98.8805 7.3 99.3285 7.524L98.5725 9.568C98.1245 9.4 97.6018 9.24133 97.0045 9.092C96.4072 8.94267 95.8472 8.868 95.3245 8.868C94.3165 8.868 93.4858 9.08267 92.8325 9.512C92.1792 9.94133 91.6938 10.576 91.3765 11.416C91.0592 12.256 90.9005 13.3013 90.9005 14.552C90.9005 15.7467 91.0592 16.764 91.3765 17.604C91.6938 18.444 92.1698 19.0787 92.8045 19.508C93.4392 19.9373 94.2325 20.152 95.1845 20.152C96.0058 20.152 96.7245 20.068 97.3405 19.9C97.9752 19.732 98.5538 19.5267 99.0765 19.284V21.468C98.5725 21.7293 98.0125 21.9253 97.3965 22.056C96.7992 22.2053 96.0712 22.28 95.2125 22.28ZM108.442 6.712C109.73 6.712 110.831 6.992 111.746 7.552C112.679 8.112 113.388 8.90533 113.874 9.932C114.378 10.94 114.63 12.1253 114.63 13.488V14.972H104.354C104.391 16.6707 104.82 17.968 105.642 18.864C106.482 19.7413 107.648 20.18 109.142 20.18C110.094 20.18 110.934 20.096 111.662 19.928C112.408 19.7413 113.174 19.48 113.958 19.144V21.3C113.192 21.636 112.436 21.8787 111.69 22.028C110.943 22.196 110.056 22.28 109.03 22.28C107.611 22.28 106.351 21.9907 105.25 21.412C104.167 20.8333 103.318 19.9747 102.702 18.836C102.104 17.6787 101.806 16.2693 101.806 14.608C101.806 12.9653 102.076 11.556 102.618 10.38C103.178 9.204 103.952 8.29867 104.942 7.664C105.95 7.02933 107.116 6.712 108.442 6.712ZM108.414 8.728C107.238 8.728 106.304 9.11067 105.614 9.876C104.942 10.6227 104.54 11.668 104.41 13.012H112.054C112.054 12.1533 111.923 11.4067 111.662 10.772C111.4 10.1373 110.999 9.64267 110.458 9.288C109.935 8.91467 109.254 8.728 108.414 8.728Z" fill="black"/>
</svg>
